<svg xmlns="http://www.w3.org/2000/svg" viewBox="0 0 512 512">
  <defs>
    <linearGradient id="bg" x1="0" y1="0" x2="1" y2="1">
      <stop offset="0" stop-color="#a987ff"/>
      <stop offset="1" stop-color="#7c3aed"/>
    </linearGradient>
  </defs>
  <rect x="16" y="16" width="480" height="480" rx="110" fill="url(#bg)"/>
  <path d="M256 120 c-78 0 -140 56 -140 140 v90 c0 18 22 22 33 8 c10 -12 28 -12 38 0 c10 12 28 12 38 0 c10 -12 28 -12 38 0 c10 12 28 12 38 0 c10 -12 28 -12 38 0 c11 14 33 10 33 -8 v-90 c0 -84 -62 -140 -140 -140 z" fill="#ffffff"/>
  <circle cx="210" cy="250" r="20" fill="#6d28d9"/>
  <circle cx="302" cy="250" r="20" fill="#6d28d9"/>
  <circle cx="178" cy="288" r="14" fill="#fbcfe8" opacity="0.9"/>
  <circle cx="334" cy="288" r="14" fill="#fbcfe8" opacity="0.9"/>
  <path d="M226 290 q30 30 60 0" stroke="#6d28d9" stroke-width="10" fill="none" stroke-linecap="round"/>
  <path d="M196 150 l60 -34 l60 34 l-60 34 z" fill="#4c1d95"/>
  <rect x="246" y="150" width="20" height="26" rx="4" fill="#4c1d95"/>
  <line x1="316" y1="150" x2="316" y2="190" stroke="#fbbf24" stroke-width="6"/>
  <circle cx="316" cy="194" r="9" fill="#fbbf24"/>
</svg>
